<svg xmlns="http://www.w3.org/2000/svg" width="30" height="30" fill="none" viewBox="0 0 30 30">
    <path fill="#C1C1C1" fill-rule="evenodd" d="m3.07 15 .04.07c.114.195.287.477.523.817.473.68 1.191 1.588 2.175 2.496C7.772 20.196 10.78 22 15 22s7.228-1.804 9.192-3.617a15.338 15.338 0 0 0 2.175-2.496A12.413 12.413 0 0 0 26.93 15a11.255 11.255 0 0 0-.563-.887 15.338 15.338 0 0 0-2.175-2.496C22.228 9.804 19.22 8 15 8s-7.228 1.804-9.192 3.617a15.332 15.332 0 0 0-2.175 2.496A12.387 12.387 0 0 0 3.07 15Zm24.43 0 .447-.224-.001-.003-.003-.005-.01-.02a8.382 8.382 0 0 0-.18-.322 13.44 13.44 0 0 0-.565-.883 16.331 16.331 0 0 0-2.318-2.66C22.772 8.946 19.531 7 15 7c-4.531 0-7.772 1.946-9.87 3.883a16.332 16.332 0 0 0-2.318 2.66 13.41 13.41 0 0 0-.708 1.136l-.037.07-.01.019-.003.005v.002h-.001L2.5 15l-.447-.224L1.94 15l.112.224L2.5 15l-.447.224.001.003.003.005.01.02.037.07a13.41 13.41 0 0 0 .708 1.136c.504.725 1.27 1.692 2.318 2.66C7.228 21.053 10.469 23 15 23c4.531 0 7.772-1.946 9.87-3.883a16.331 16.331 0 0 0 2.318-2.66 13.44 13.44 0 0 0 .708-1.136l.037-.07.01-.019.003-.005v-.002h.001L27.5 15Zm0 0 .447.224.112-.224-.112-.224L27.5 15Z" clip-rule="evenodd"/>
    <path fill="#C1C1C1" fill-rule="evenodd" d="M15 11.75a3.25 3.25 0 1 0 0 6.5 3.25 3.25 0 0 0 0-6.5ZM10.75 15a4.25 4.25 0 1 1 8.5 0 4.25 4.25 0 0 1-8.5 0Z" clip-rule="evenodd"/>
</svg>
