<svg xmlns="http://www.w3.org/2000/svg" width="80" height="82" fill="none" viewBox="0 0 80 82">
    <path fill="#62A4FB" d="m37.594 15.973-.072-.066a15.145 15.145 0 0 0-14.243-3.44 73.981 73.981 0 0 1-19.584 2.639H1.5c-1.334 0-2.002 1.613-1.058 2.556l1.735 1.736a6.66 6.66 0 0 0 4.71 1.95h1.591a6.66 6.66 0 0 1 4.71 1.951 6.66 6.66 0 0 0 4.71 1.95h3.238a6.66 6.66 0 0 1 4.71 1.951l.91.91a6.66 6.66 0 0 0 4.71 1.951h6.128V15.973Z"/>
    <path fill="#A2F5C3" d="M38.108 43.675c.762-.252 1.137-.95 1.872-1.468l-.3-.093a411.053 411.053 0 0 1-16.111-5.3c-.782-.275-1.594-.573-2.159-1.18-1.197-1.284-.524-3.751 1.159-4.251 1.367-.406 2.774.347 4.172.626 1.172.233 2.442.113 3.47-.494 1.03-.608 1.774-1.742 1.758-2.936-.024-1.767-1.679-3.183-3.418-3.493-1.74-.31-3.513.236-5.15.897-1.001.404-1.983.689-2.943 1.182-.867.446-1.639 1-2.282 1.724-1.261 1.419-2.052 3.147-2.038 5.074a7.307 7.307 0 0 0 2.452 5.365c1.48 1.299 3.413 1.933 5.286 2.54 3.067.991 6.13 1.995 9.19 3.01 2.207.484 3.455-.678 5.042-1.203Z"/>
    <path fill="#62A4FB" d="m42.316 15.973.071-.066c3.84-3.52 9.22-4.82 14.243-3.44a73.98 73.98 0 0 0 19.584 2.639h2.194c1.335 0 2.002 1.613 1.06 2.556l-1.736 1.736a6.66 6.66 0 0 1-4.71 1.95h-1.591a6.66 6.66 0 0 0-4.71 1.951 6.66 6.66 0 0 1-4.71 1.95h-3.239a6.66 6.66 0 0 0-4.709 1.951l-.91.91a6.66 6.66 0 0 1-4.71 1.951h-6.127V15.973Z"/>
    <path fill="#5392F9" d="M78.409 15.106h-2.195c-.906 0-1.813-.018-2.718-.052l-.713.714a6.66 6.66 0 0 1-4.71 1.95h-1.592a6.66 6.66 0 0 0-4.71 1.951 6.66 6.66 0 0 1-4.709 1.95h-3.239a6.66 6.66 0 0 0-4.71 1.951l-.91.91a6.66 6.66 0 0 1-4.709 1.952h-1.178v3.63h6.128a6.66 6.66 0 0 0 4.71-1.951l.91-.91a6.66 6.66 0 0 1 4.709-1.951h3.239a6.66 6.66 0 0 0 4.71-1.951 6.66 6.66 0 0 1 4.709-1.95h1.592a6.66 6.66 0 0 0 4.71-1.951l1.735-1.736c.943-.943.275-2.556-1.06-2.556Z"/>
    <path fill="#BED9FD" d="M47.582 65.06c-1.168-1.201-2.539-2.168-3.967-3.053h-.626c-.902.329-1.79.7-2.661 1.1a41.71 41.71 0 0 0-1.202.576c-.13.065-.261.132-.391.199-.064.033-.315.165-.39.206 1.178.557 2.359 1.11 3.496 1.741 1.866 1.035 3.7 2.387 4.522 4.356.65 1.56.576 3.284.212 4.96-.193.883.814 1.552 1.538 1.01 1.354-1.008 2.242-2.715 2.332-4.433.13-2.484-1.129-4.879-2.863-6.662Z"/>
    <path fill="#BED9FD" d="M45.356 5.402a5.402 5.402 0 1 0-7.781 4.85V79.63a2.371 2.371 0 0 0 4.742 0V10.262a5.403 5.403 0 0 0 3.039-4.86Z"/>
    <path fill="#9EC8FC" d="M39.955 0c-.893 0-1.734.218-2.475.601a5.401 5.401 0 0 1 0 9.6c.032.017.063.036.095.052V58.48l-1.65 1.762 1.65 2.353v17.033a2.371 2.371 0 1 0 4.742 0V47.99l1.65-2.132-1.65-3.588V10.262A5.402 5.402 0 0 0 39.955 0Z"/>
    <path fill="#BED9FD" d="M63.458 32.51c-.283-1.434-1.03-2.758-2.07-3.785-.906-.896-2.034-1.566-3.268-1.888-.582-.151-1.183-.232-1.745-.445-.6-.228-1.135-.6-1.716-.874a5.746 5.746 0 0 0-3.26-.486c-1.822.267-3.6 1.704-3.639 3.546-.028 1.364.925 2.633 2.162 3.209 1.238.576 2.697.532 4 .126.885-.277 1.759-.718 2.683-.647 1.057.082 2.005.902 2.278 1.927.273 1.024-.125 2.185-.942 2.86-.555.458-1.255.693-1.937.919l-18.287 6.05c-2.032.672-4.111 1.37-5.782 2.707-2.536 2.03-3.524 5.105-3.31 8.253.224 3.297 2.349 5.8 5.026 7.59 1.244.83 2.576 1.505 3.926 2.151v-5.241l-.684-.396c-.972-.563-1.965-1.144-2.681-2.008-1.467-1.77-1.372-4.635.209-6.304 1.077-1.138 2.63-1.669 4.119-2.159l3.777-1.245 2.248.91 2.067-2.332 9.717-3.202c1.509-.497 3.047-1.01 4.317-1.963 2.19-1.643 3.32-4.586 2.792-7.273Z"/>
    <path fill="#A2F5C3" d="M49.869 48.09c-.88-1.415-1.818-2.296-3.237-3.142-2.157.711-2.248.747-4.315 1.422l.004 1.618c.948.339 1.879.739 2.628 1.4 1.477 1.306 1.979 3.609 1.146 5.395-.499 1.069-1.394 1.9-2.334 2.613-1.912 1.45-4.08 2.517-6.18 3.679-2.101 1.161-4.177 2.45-5.775 4.241-1.598 1.79-2.68 4.16-2.467 6.55.145 1.624.99 3.212 2.256 4.2.727.568 1.767-.068 1.58-.972-.35-1.697-.476-3.428.176-5.002.869-2.097 2.926-3.43 4.94-4.48 4.227-2.204 9.088-4.018 11.511-8.125.371-.63.667-1.304.882-2.004.757-2.455.536-5.216-.815-7.393Z"/>
</svg>
